#!OML:ASF H:\Pregnant\Project 1\Capture day 1\Session 1\femalepreg.ASF
:FULLY-SPECIFIED
:DEGREES
318
root 9.11676 15.5702 20.369 -145.998 -15.526 -171.681
lowerback 0.965856 2.31532 -3.04035
upperback -2.95521 2.96099 0.0421376
thorax -3.74332 1.54416 1.61672
lowerneck -32.754 6.67908 -0.415478
upperneck -3.74402 7.21353 -3.82633
head 3.6784 2.44255 -0.412799
rclavicle -4.57205e-014 -1.90833e-014
rhumerus -12.0313 17.093 -75.7808
rradius 98.3272
rwrist -33.6502
rhand -21.8132 -32.615
rfingers 7.12502
rthumb 4.58913 -62.5453
lclavicle -4.57205e-014 -1.90833e-014
lhumerus -10.2091 -41.687 89.5963
lradius 80.9132
lwrist 80.2992
lhand -32.197 -1.50771
lfingers 7.12502
lthumb -5.43891 28.4025
rfemur -50.5681 4.68395 14.5217
rtibia 24.306
rfoot -1.96974 -19.2078
rtoes -25.3773
lfemur -52.8073 -3.16128 12.812
ltibia 23.798
lfoot -1.10634 18.1965
ltoes -34.5504
319
root 9.10132 15.5772 20.3501 -146.425 -15.6703 -171.766
lowerback 0.619032 2.28377 -2.93033
upperback -3.11443 2.92273 0.0903805
thorax -3.70719 1.51994 1.61772
lowerneck -32.3767 6.76288 -0.208173
upperneck -3.31595 7.37206 -3.91992
head 3.78881 2.55177 -0.452732
rclavicle 1.98785e-014 1.03368e-014
rhumerus -12.7872 17.392 -76.0346
rradius 99.2095
rwrist -33.5714
rhand -22.2859 -32.1821
rfingers 7.12502
rthumb 4.1327 -62.1217
lclavicle 1.98785e-014 1.03368e-014
lhumerus -10.8418 -41.6486 89.8309
lradius 81.4939
lwrist 80.3539
lhand -31.8234 -1.41706
lfingers 7.12502
lthumb -5.07823 28.5021
rfemur -49.7955 4.78048 14.3797
rtibia 24.0718
rfoot -2.00486 -19.5107
rtoes -25.2384
lfemur -52.3293 -3.52514 12.64
ltibia 23.6381
lfoot -1.16379 18.1081
ltoes -34.4818
320
root 9.08534 15.5845 20.3307 -146.849 -15.8107 -171.848
lowerback 0.266313 2.25151 -2.82478
upperback -3.27277 2.88202 0.144888
thorax -3.66742 1.49416 1.62774
lowerneck -31.9867 6.85831 0.00362123
upperneck -2.88683 7.54511 -4.01952
head 3.89853 2.66733 -0.493534
rclavicle 2.22639e-014 2.94201e-014
rhumerus -13.5056 17.6786 -76.2741
rradius 100.052
rwrist -33.3708
rhand -22.5801 -31.8223
rfingers 7.12502
rthumb 3.84862 -61.7673
lclavicle 2.22639e-014 2.94201e-014
lhumerus -11.4618 -41.5983 90.0648
lradius 82.0679
lwrist 80.3311
lhand -31.5478 -1.37155
lfingers 7.12502
lthumb -4.81209 28.5538
rfemur -49.0148 4.88387 14.2408
rtibia 23.8186
rfoot -2.02579 -19.8103
rtoes -25.1145
lfemur -51.8444 -3.88856 12.4684
ltibia 23.4745
lfoot -1.22312 18.0279
ltoes -34.4116
321
root 9.0689 15.5919 20.3106 -147.278 -15.9354 -171.921
lowerback -0.0860644 2.22427 -2.724
upperback -3.42896 2.84639 0.203144
thorax -3.62647 1.47064 1.64382
lowerneck -31.5832 6.96693 0.23491
upperneck -2.45291 7.73115 -4.13787
head 4.00992 2.78755 -0.541717
rclavicle -2.42517e-014 4.13472e-014
rhumerus -14.1921 17.9638 -76.5031
rradius 100.865
rwrist -33.0983
rhand -22.8073 -31.4795
rfingers 7.12502
rthumb 3.62919 -61.4284
lclavicle -2.42517e-014 4.13472e-014
lhumerus -12.0814 -41.5351 90.3002
lradius 82.6412
lwrist 80.2166
lhand -31.3714 -1.32619
lfingers 7.12502
lthumb -4.64172 28.603
rfemur -48.2199 5.00453 14.1087
rtibia 23.5419
rfoot -2.03144 -20.1019
rtoes -24.9962
lfemur -51.3368 -4.24024 12.2936
ltibia 23.3084
lfoot -1.28917 17.9519
ltoes -34.3402
322
root 9.05196 15.5996 20.2897 -147.711 -16.0406 -171.983
lowerback -0.446866 2.20016 -2.62877
upperback -3.57747 2.81387 0.266004
thorax -3.57364 1.44835 1.66789
lowerneck -31.1801 7.08963 0.46376
upperneck -2.01587 7.93582 -4.24829
head 4.12208 2.91664 -0.584526
rclavicle 8.34896e-015 -6.59965e-014
rhumerus -14.8204 18.2503 -76.7123
rradius 101.64
rwrist -32.7382
rhand -22.9283 -31.2119
rfingers 7.12502
rthumb 3.5123 -61.1627
lclavicle 8.34896e-015 -6.59965e-014
lhumerus -12.6836 -41.4423 90.5238
lradius 83.2011
lwrist 80.0097
lhand -31.2438 -1.229
lfingers 7.12502
lthumb -4.51856 28.7028
rfemur -47.4112 5.14002 13.9889
rtibia 23.2393
rfoot -2.02298 -20.3775
rtoes -24.8887
lfemur -50.8042 -4.56917 12.1108
ltibia 23.1412
lfoot -1.36421 17.8733
ltoes -34.2759
323
root 9.03491 15.6075 20.2679 -148.15 -16.1325 -172.043
lowerback -0.806233 2.17964 -2.54577
upperback -3.7202 2.78468 0.33032
thorax -3.51665 1.42773 1.70001
lowerneck -30.7658 7.22369 0.704914
upperneck -1.57513 8.15277 -4.36613
head 4.23516 3.05084 -0.630017
rclavicle 4.73108e-014 4.6118e-014
rhumerus -15.4109 18.5279 -76.9082
rradius 102.381
rwrist -32.2939
rhand -22.9893 -30.962
rfingers 7.12502
rthumb 3.45347 -60.9138
lclavicle 4.73108e-014 4.6118e-014
lhumerus -13.2755 -41.3205 90.7394
lradius 83.7428
lwrist 79.7238
lhand -31.124 -1.03856
lfingers 7.12502
lthumb -4.40292 28.8957
rfemur -46.5822 5.29785 13.8648
rtibia 22.9126
rfoot -2.0073 -20.6582
rtoes -24.7664
lfemur -50.247 -4.89055 11.9178
ltibia 22.9705
lfoot -1.44685 17.7964
ltoes -34.2129
324
root 9.01763 15.6155 20.2456 -148.589 -16.212 -172.102
lowerback -1.16491 2.16385 -2.46105
upperback -3.86302 2.76007 0.385496
thorax -3.45998 1.40878 1.72141
lowerneck -30.3386 7.36748 0.969632
upperneck -1.12975 8.37633 -4.48945
head 4.34952 3.18772 -0.679932
rclavicle 1.07344e-014 9.54166e-015
rhumerus -15.9884 18.7956 -77.1232
rradius 103.102
rwrist -31.7805
rhand -23.0055 -30.7049
rfingers 7.12502
rthumb 3.43782 -60.6569
lclavicle 1.07344e-014 9.54166e-015
lhumerus -13.8492 -41.1728 90.932
lradius 84.2503
lwrist 79.3982
lhand -30.9412 -0.748761
lfingers 7.12502
lthumb -4.2264 29.1891
rfemur -45.7448 5.47197 13.738
rtibia 22.5669
rfoot -1.9863 -20.9412
rtoes -24.6324
lfemur -49.677 -5.20206 11.717
ltibia 22.7985
lfoot -1.53041 17.7214
ltoes -34.1592
325
root 9.00046 15.6236 20.2226 -149.035 -16.2849 -172.165
lowerback -1.51651 2.15133 -2.38814
upperback -3.9987 2.73863 0.439686
thorax -3.40078 1.39151 1.748
lowerneck -29.9072 7.51565 1.23975
upperneck -0.679185 8.6049 -4.61462
head 4.46558 3.32635 -0.730453
rclavicle 7.91163e-014 -1.27222e-014
rhumerus -16.5502 19.0564 -77.3434
rradius 103.806
rwrist -31.2182
rhand -23.0136 -30.4157
rfingers 7.12502
rthumb 3.42999 -60.3678
lclavicle 7.91163e-014 -1.27222e-014
lhumerus -14.4099 -40.9933 91.1133
lradius 84.7287
lwrist 79.0691
lhand -30.6321 -0.393896
lfingers 7.12502
lthumb -3.9279 29.5496
rfemur -44.8889 5.66771 13.6028
rtibia 22.2101
rfoot -1.96804 -21.2401
rtoes -24.4782
lfemur -49.0884 -5.51069 11.503
ltibia 22.6264
lfoot -1.62039 17.6433
ltoes -34.1088
326
root 8.98278 15.6311 20.2001 -149.461 -16.3504 -172.232
lowerback -1.87734 2.14211 -2.31389
upperback -4.13837 2.71989 0.490045
thorax -3.34059 1.37496 1.76999
lowerneck -29.4713 7.66983 1.51637
upperneck -0.22413 8.84035 -4.74317
head 4.58328 3.46744 -0.782037
rclavicle 3.12092e-014 5.24792e-014
rhumerus -17.105 19.3247 -77.5748
rradius 104.501
rwrist -30.6554
rhand -23.0668 -30.0661
rfingers 7.12502
rthumb 3.37859 -60.019
lclavicle 3.12092e-014 5.24792e-014
lhumerus -14.9589 -40.7839 91.2847
lradius 85.1799
lwrist 78.7752
lhand -30.199 -0.0142492
lfingers 7.12502
lthumb -3.50959 29.9366
rfemur -44.0562 5.86205 13.4632
rtibia 21.8483
rfoot -1.94573 -21.5312
rtoes -24.3193
lfemur -48.521 -5.80978 11.2858
ltibia 22.4617
lfoot -1.70691 17.5734
ltoes -34.0553
